<svg width="25" height="16" viewBox="0 0 25 16" fill="none" xmlns="http://www.w3.org/2000/svg">
<path d="M1.625 0.875H23.375C23.6734 0.875 23.9595 0.993526 24.1705 1.2045C24.3815 1.41548 24.5 1.70163 24.5 2C24.5 2.29837 24.3815 2.58452 24.1705 2.7955C23.9595 3.00647 23.6734 3.125 23.375 3.125H1.625C1.32663 3.125 1.04048 3.00647 0.829505 2.7955C0.618526 2.58452 0.5 2.29837 0.5 2C0.5 1.70163 0.618526 1.41548 0.829505 1.2045C1.04048 0.993526 1.32663 0.875 1.625 0.875ZM5 8C5 7.70163 5.11853 7.41548 5.3295 7.2045C5.54048 6.99353 5.82663 6.875 6.125 6.875H18.875C19.1734 6.875 19.4595 6.99353 19.6705 7.2045C19.8815 7.41548 20 7.70163 20 8C20 8.29837 19.8815 8.58452 19.6705 8.79549C19.4595 9.00647 19.1734 9.125 18.875 9.125H6.125C5.82663 9.125 5.54048 9.00647 5.3295 8.79549C5.11853 8.58452 5 8.29837 5 8ZM9.5 14C9.5 13.7016 9.61853 13.4155 9.8295 13.2045C10.0405 12.9935 10.3266 12.875 10.625 12.875H14.375C14.6734 12.875 14.9595 12.9935 15.1705 13.2045C15.3815 13.4155 15.5 13.7016 15.5 14C15.5 14.2984 15.3815 14.5845 15.1705 14.7955C14.9595 15.0065 14.6734 15.125 14.375 15.125H10.625C10.3266 15.125 10.0405 15.0065 9.8295 14.7955C9.61853 14.5845 9.5 14.2984 9.5 14Z" fill="black"/>
</svg>
