<svg width="24" height="21" viewBox="0 0 24 21" fill="none" xmlns="http://www.w3.org/2000/svg">
<path d="M12 19.8749L12.5175 20.8739C12.3576 20.9568 12.1801 21 12 21C11.8199 21 11.6424 20.9568 11.4825 20.8739L11.4705 20.8679L11.4435 20.8529C11.2864 20.7718 11.1314 20.6868 10.9785 20.5979C9.15028 19.5574 7.42547 18.345 5.8275 16.9769C3.0675 14.5964 0 11.0249 0 6.74994C0 2.75394 3.129 -6.10352e-05 6.375 -6.10352e-05C8.6955 -6.10352e-05 10.7295 1.20294 12 3.02994C13.2705 1.20294 15.3045 -6.10352e-05 17.625 -6.10352e-05C20.871 -6.10352e-05 24 2.75394 24 6.74994C24 11.0249 20.9325 14.5964 18.1725 16.9769C16.439 18.459 14.557 19.7579 12.5565 20.8529L12.5295 20.8679L12.5205 20.8724H12.5175L12 19.8749ZM6.375 2.24994C4.371 2.24994 2.25 3.99594 2.25 6.74994C2.25 9.97494 4.62 12.9659 7.2975 15.2729C8.75832 16.5224 10.3327 17.6328 12 18.5894C13.6673 17.6328 15.2417 16.5224 16.7025 15.2729C19.38 12.9659 21.75 9.97494 21.75 6.74994C21.75 3.99594 19.629 2.24994 17.625 2.24994C15.5655 2.24994 13.7115 3.72894 13.0815 5.93394C13.0152 6.1697 12.8736 6.37733 12.6784 6.52521C12.4831 6.67309 12.2449 6.75312 12 6.75312C11.7551 6.75312 11.5169 6.67309 11.3216 6.52521C11.1264 6.37733 10.9848 6.1697 10.9185 5.93394C10.2885 3.72894 8.4345 2.24994 6.375 2.24994Z" fill="black"/>
</svg>
