<svg width="24" height="24" viewBox="0 0 24 24" fill="none" xmlns="http://www.w3.org/2000/svg">
<path d="M6 18H9V12H15V18H18V9L12 4.5L6 9V18ZM6 20C5.45 20 4.97933 19.8043 4.588 19.413C4.196 19.021 4 18.55 4 18V9C4 8.68333 4.071 8.38333 4.213 8.1C4.35433 7.81667 4.55 7.58333 4.8 7.4L10.8 2.9C10.9833 2.76667 11.175 2.66667 11.375 2.6C11.575 2.53333 11.7833 2.5 12 2.5C12.2167 2.5 12.425 2.53333 12.625 2.6C12.825 2.66667 13.0167 2.76667 13.2 2.9L19.2 7.4C19.45 7.58333 19.646 7.81667 19.788 8.1C19.9293 8.38333 20 8.68333 20 9V18C20 18.55 19.8043 19.021 19.413 19.413C19.021 19.8043 18.55 20 18 20H13V14H11V20H6Z" fill="#99C455"/>
</svg>
