<svg width="81" height="80" viewBox="0 0 81 80" fill="none" xmlns="http://www.w3.org/2000/svg">
<path d="M69.6667 23.2998C69.2 21.4665 67.3667 20.3998 65.5333 20.7998C57.6 22.5665 48.7667 23.3332 40.5 23.3332C32.2333 23.3332 23.4 22.5665 15.4667 20.7998C13.6333 20.3998 11.8 21.4665 11.3333 23.2998C10.8667 25.1665 12 27.0665 13.8333 27.4998C19.2 28.6998 25 29.5332 30.5 29.9998V69.9998C30.5 71.8332 32 73.3332 33.8333 73.3332C35.6667 73.3332 37.1667 71.8332 37.1667 69.9998V53.3332H43.8333V69.9998C43.8333 71.8332 45.3333 73.3332 47.1667 73.3332C49 73.3332 50.5 71.8332 50.5 69.9998V29.9998C56 29.5332 61.8 28.6998 67.1333 27.4998C69 27.0665 70.1333 25.1665 69.6667 23.2998ZM40.5 19.9998C44.1667 19.9998 47.1667 16.9998 47.1667 13.3332C47.1667 9.6665 44.1667 6.6665 40.5 6.6665C36.8333 6.6665 33.8333 9.6665 33.8333 13.3332C33.8333 16.9998 36.8333 19.9998 40.5 19.9998Z" fill="#425424"/>
</svg>
