<svg width="38" height="26" viewBox="0 0 38 26" fill="none" xmlns="http://www.w3.org/2000/svg">
<rect x="0.754883" y="0.5" width="36.7445" height="25" rx="3.5" fill="white" stroke="#B2BCCA"/>
<path fill-rule="evenodd" clip-rule="evenodd" d="M19.3263 18.2318C18.0119 19.3131 16.3067 19.9659 14.4435 19.9659C10.2862 19.9659 6.91602 16.7162 6.91602 12.7076C6.91602 8.69889 10.2862 5.44922 14.4435 5.44922C16.3067 5.44922 18.0119 6.10198 19.3263 7.18328C20.6408 6.10198 22.3459 5.44922 24.2092 5.44922C28.3665 5.44922 31.7366 8.69889 31.7366 12.7076C31.7366 16.7162 28.3665 19.9659 24.2092 19.9659C22.3459 19.9659 20.6408 19.3131 19.3263 18.2318Z" fill="#ED0006"/>
<path fill-rule="evenodd" clip-rule="evenodd" d="M19.3262 18.2322C20.9448 16.9009 21.9712 14.9198 21.9712 12.7076C21.9712 10.4953 20.9448 8.51424 19.3262 7.18293C20.6406 6.10184 22.3456 5.44922 24.2086 5.44922C28.3659 5.44922 31.7361 8.69889 31.7361 12.7076C31.7361 16.7162 28.3659 19.9659 24.2086 19.9659C22.3456 19.9659 20.6406 19.3133 19.3262 18.2322Z" fill="#F9A000"/>
<path fill-rule="evenodd" clip-rule="evenodd" d="M19.3262 18.2317C20.9447 16.9003 21.9709 14.9194 21.9709 12.7074C21.9709 10.4953 20.9447 8.51442 19.3263 7.18311C17.7079 8.51442 16.6816 10.4953 16.6816 12.7074C16.6816 14.9194 17.7078 16.9003 19.3262 18.2317Z" fill="#FD6020"/>
</svg>
