<svg width="80" height="80" viewBox="0 0 80 80" fill="none" xmlns="http://www.w3.org/2000/svg">
<path d="M66.5 70C59.3333 70 52.3478 68.4022 45.5433 65.2067C38.7389 62.0111 32.7111 57.7889 27.46 52.54C22.2089 47.2911 17.9867 41.2633 14.7933 34.4567C11.6 27.65 10.0022 20.6644 10 13.5C10 12.5 10.3333 11.6667 11 11C11.6667 10.3333 12.5 10 13.5 10H27C27.7778 10 28.4722 10.25 29.0833 10.75C29.6944 11.25 30.0556 11.8889 30.1667 12.6667L32.3333 24.3333C32.4444 25.1111 32.43 25.82 32.29 26.46C32.15 27.1 31.8311 27.6689 31.3333 28.1667L23.25 36.3333C25.5833 40.3333 28.5144 44.0833 32.0433 47.5833C35.5722 51.0833 39.4467 54.1111 43.6667 56.6667L51.5 48.8333C52 48.3333 52.6533 47.9578 53.46 47.7067C54.2667 47.4556 55.0578 47.3867 55.8333 47.5L67.3333 49.8333C68.1111 50 68.75 50.3756 69.25 50.96C69.75 51.5444 70 52.2244 70 53V66.5C70 67.5 69.6667 68.3333 69 69C68.3333 69.6667 67.5 70 66.5 70ZM20.0833 30L25.5833 24.5L24.1667 16.6667H16.75C17.0278 18.9444 17.4167 21.1944 17.9167 23.4167C18.4167 25.6389 19.1389 27.8333 20.0833 30ZM63.3333 63.1667V55.8333L55.5 54.25L49.9167 59.8333C52.0833 60.7778 54.2911 61.5278 56.54 62.0833C58.7889 62.6389 61.0533 63 63.3333 63.1667Z" fill="#425424"/>
</svg>
