<svg width="81" height="80" viewBox="0 0 81 80" fill="none" xmlns="http://www.w3.org/2000/svg">
<path d="M35.5001 46.6665H57.1668C58.1112 46.6665 58.9034 46.3465 59.5434 45.7065C60.1834 45.0665 60.5023 44.2754 60.5001 43.3332C60.5001 42.3887 60.1801 41.5965 59.5401 40.9565C58.9001 40.3165 58.109 39.9976 57.1668 39.9998H42.1668L35.5001 46.6665ZM22.1668 46.6665H27.3334C27.7779 46.6665 28.1945 46.5687 28.5834 46.3732C28.9723 46.1776 29.3334 45.9421 29.6668 45.6665L48.3334 27.1665C48.6668 26.8332 48.8334 26.4165 48.8334 25.9165C48.8334 25.4165 48.6668 24.9998 48.3334 24.6665L42.5001 18.8332C42.1668 18.4998 41.7501 18.3332 41.2501 18.3332C40.7501 18.3332 40.3334 18.4998 40.0001 18.8332L21.5001 37.4998C21.2223 37.8332 20.9868 38.1943 20.7934 38.5832C20.6001 38.9721 20.5023 39.3887 20.5001 39.8332V44.9998C20.5001 45.4443 20.6668 45.8332 21.0001 46.1665C21.3334 46.4998 21.7223 46.6665 22.1668 46.6665ZM7.16675 65.2498V13.3332C7.16675 11.4998 7.82009 9.92984 9.12675 8.62318C10.4334 7.31651 12.0023 6.66429 13.8334 6.66651H67.1668C69.0001 6.66651 70.5701 7.31984 71.8768 8.62651C73.1834 9.93318 73.8356 11.5021 73.8334 13.3332V53.3332C73.8334 55.1665 73.1801 56.7365 71.8734 58.0432C70.5668 59.3498 68.9979 60.0021 67.1668 59.9998H20.5001L12.8334 67.6665C11.7779 68.7221 10.569 68.9587 9.20675 68.3765C7.84453 67.7943 7.16453 66.7521 7.16675 65.2498ZM13.8334 57.2498L17.7501 53.3332H67.1668V13.3332H13.8334V57.2498Z" fill="#425424"/>
</svg>
