<svg width="25" height="24" viewBox="0 0 25 24" fill="none" xmlns="http://www.w3.org/2000/svg">
<path d="M16.5 8V5H8.5V8H6.5V4C6.5 3.71667 6.596 3.479 6.788 3.287C6.98 3.095 7.21734 2.99934 7.5 3H17.5C17.7833 3 18.021 3.096 18.213 3.288C18.405 3.48 18.5007 3.71734 18.5 4V8H16.5ZM18.5 12.5C18.7833 12.5 19.021 12.404 19.213 12.212C19.405 12.02 19.5007 11.7827 19.5 11.5C19.5 11.2167 19.404 10.979 19.212 10.787C19.02 10.595 18.7827 10.4993 18.5 10.5C18.2167 10.5 17.979 10.596 17.787 10.788C17.595 10.98 17.4993 11.2173 17.5 11.5C17.5 11.7833 17.596 12.021 17.788 12.213C17.98 12.405 18.2173 12.5007 18.5 12.5ZM8.5 19H16.5V15H8.5V19ZM8.5 21C7.95 21 7.479 20.8043 7.087 20.413C6.695 20.0217 6.49934 19.5507 6.5 19V17H3.5C3.21667 17 2.979 16.9043 2.787 16.713C2.595 16.5217 2.49934 16.284 2.5 16V11C2.5 10.15 2.79167 9.43734 3.375 8.862C3.95834 8.28667 4.66667 7.99934 5.5 8H19.5C20.35 8 21.0627 8.28734 21.638 8.862C22.2133 9.43667 22.5007 10.1493 22.5 11V16C22.5 16.2833 22.404 16.521 22.212 16.713C22.02 16.905 21.7827 17.0007 21.5 17H18.5V19C18.5 19.55 18.304 20.021 17.912 20.413C17.52 20.805 17.0493 21.0007 16.5 21H8.5ZM20.5 15V11C20.5 10.7167 20.404 10.479 20.212 10.287C20.02 10.095 19.7827 9.99934 19.5 10H5.5C5.21667 10 4.979 10.096 4.787 10.288C4.595 10.48 4.49934 10.7173 4.5 11V15H6.5V13H18.5V15H20.5Z" fill="#F2F2F2"/>
</svg>
