<svg width="81" height="80" viewBox="0 0 81 80" fill="none" xmlns="http://www.w3.org/2000/svg">
<path d="M16.4609 73L14.1276 70.6667L40.7109 44.0833C39.6554 42.8056 38.8354 41.3611 38.2509 39.75C37.6665 38.1389 37.3754 36.4445 37.3776 34.6667C37.3776 30.5 38.8365 26.9722 41.7543 24.0833C44.672 21.1945 48.2132 19.75 52.3776 19.75H53.2109L42.9609 30L57.1276 44.0833L67.3776 33.8333V34.75C67.3776 38.9167 65.9198 42.4445 63.0043 45.3333C60.0887 48.2222 56.5465 49.6667 52.3776 49.6667C50.5998 49.6667 48.9187 49.3745 47.3343 48.79C45.7498 48.2056 44.3198 47.3867 43.0443 46.3333L16.4609 73ZM62.7943 17.8333C62.7943 16.2222 61.9332 15.0133 60.2109 14.2067C58.4887 13.4 55.8776 12.9978 52.3776 13C46.3221 13 41.1976 15.0978 37.0043 19.2933C32.8109 23.4889 30.7132 28.6133 30.7109 34.6667C30.7109 36.1111 30.8498 37.5422 31.1276 38.96C31.4054 40.3778 31.822 41.7245 32.3776 43L9.46094 65.9167C8.18316 67.1945 7.52983 68.7645 7.50094 70.6267C7.47205 72.4889 8.0976 74.0578 9.37761 75.3333L11.6276 77.6667C12.9054 79 14.4754 79.6811 16.3376 79.71C18.1998 79.7389 19.7965 79.0856 21.1276 77.75L44.1276 54.75C45.4054 55.3056 46.7387 55.7089 48.1276 55.96C49.5165 56.2111 50.9054 56.3356 52.2943 56.3333C58.3498 56.3333 63.4743 54.2367 67.6676 50.0433C71.8609 45.85 73.9587 40.7245 73.9609 34.6667C73.9609 31.1111 73.572 28.4856 72.7943 26.79C72.0165 25.0945 70.822 24.2478 69.2109 24.25C68.6554 24.25 68.1409 24.3478 67.6676 24.5433C67.1943 24.7389 66.7643 25.03 66.3776 25.4167L57.1276 34.6667L52.3776 30L61.6276 20.75C62.0165 20.3611 62.3087 19.9167 62.5043 19.4167C62.6998 18.9167 62.7965 18.3889 62.7943 17.8333Z" fill="#425424"/>
</svg>
