<svg width="81" height="80" viewBox="0 0 81 80" fill="none" xmlns="http://www.w3.org/2000/svg">
<path d="M60.4999 61.6668C63.2666 61.6668 65.4999 59.4335 65.4999 56.6668C65.4999 53.9002 63.2666 51.6668 60.4999 51.6668C57.7333 51.6668 55.4999 53.9002 55.4999 56.6668C55.4999 59.4335 57.7333 61.6668 60.4999 61.6668ZM65.4999 31.6668H57.1666V40.0002H72.0332L65.4999 31.6668ZM20.4999 61.6668C23.2666 61.6668 25.4999 59.4335 25.4999 56.6668C25.4999 53.9002 23.2666 51.6668 20.4999 51.6668C17.7333 51.6668 15.4999 53.9002 15.4999 56.6668C15.4999 59.4335 17.7333 61.6668 20.4999 61.6668ZM67.1666 26.6668L77.1666 40.0002V56.6668H70.4999C70.4999 62.2002 66.0333 66.6668 60.4999 66.6668C54.9666 66.6668 50.4999 62.2002 50.4999 56.6668H30.4999C30.4999 62.2002 26.0333 66.6668 20.4999 66.6668C14.9666 66.6668 10.4999 62.2002 10.4999 56.6668H3.83325V20.0002C3.83325 16.3002 6.79992 13.3335 10.4999 13.3335H57.1666V26.6668H67.1666ZM10.4999 20.0002V50.0002H13.0333C14.8666 47.9668 17.5333 46.6668 20.4999 46.6668C23.4666 46.6668 26.1333 47.9668 27.9666 50.0002H50.4999V20.0002H10.4999ZM33.8333 23.3335L45.4999 35.0002L33.8333 46.6668V38.3335H17.1666V31.6668H33.8333V23.3335Z" fill="#425424"/>
</svg>
