<svg width="80" height="80" viewBox="0 0 80 80" fill="none" xmlns="http://www.w3.org/2000/svg">
<path d="M36.6667 59.9998H43.3334V53.3332H36.6667V59.9998ZM40.0001 6.6665C35.6227 6.6665 31.2882 7.5287 27.244 9.20385C23.1998 10.879 19.5251 13.3343 16.4299 16.4296C10.1786 22.6808 6.66675 31.1593 6.66675 39.9998C6.66675 48.8404 10.1786 57.3189 16.4299 63.5701C19.5251 66.6654 23.1998 69.1207 27.244 70.7958C31.2882 72.471 35.6227 73.3332 40.0001 73.3332C48.8406 73.3332 57.3191 69.8213 63.5703 63.5701C69.8215 57.3189 73.3334 48.8404 73.3334 39.9998C73.3334 35.6224 72.4712 31.2879 70.7961 27.2437C69.1209 23.1995 66.6656 19.5249 63.5703 16.4296C60.475 13.3343 56.8004 10.879 52.7562 9.20385C48.712 7.5287 44.3775 6.6665 40.0001 6.6665ZM40.0001 66.6665C25.3001 66.6665 13.3334 54.6998 13.3334 39.9998C13.3334 25.2998 25.3001 13.3332 40.0001 13.3332C54.7001 13.3332 66.6668 25.2998 66.6668 39.9998C66.6668 54.6998 54.7001 66.6665 40.0001 66.6665ZM40.0001 19.9998C36.4639 19.9998 33.0725 21.4046 30.572 23.9051C28.0715 26.4056 26.6667 29.797 26.6667 33.3332H33.3334C33.3334 31.5651 34.0358 29.8694 35.286 28.6191C36.5363 27.3689 38.232 26.6665 40.0001 26.6665C41.7682 26.6665 43.4639 27.3689 44.7141 28.6191C45.9644 29.8694 46.6667 31.5651 46.6667 33.3332C46.6667 39.9998 36.6667 39.1665 36.6667 49.9998H43.3334C43.3334 42.4998 53.3334 41.6665 53.3334 33.3332C53.3334 29.797 51.9287 26.4056 49.4282 23.9051C46.9277 21.4046 43.5363 19.9998 40.0001 19.9998Z" fill="#425424"/>
</svg>
