<svg width="80" height="80" viewBox="0 0 80 80" fill="none" xmlns="http://www.w3.org/2000/svg">
<path d="M73.3334 33.3335V20.0002C73.3334 18.2321 72.631 16.5364 71.3808 15.2861C70.1306 14.0359 68.4349 13.3335 66.6668 13.3335H13.3334C11.5653 13.3335 9.86961 14.0359 8.61937 15.2861C7.36913 16.5364 6.66675 18.2321 6.66675 20.0002V33.3335C8.43486 33.3335 10.1306 34.0359 11.3808 35.2861C12.631 36.5364 13.3334 38.2321 13.3334 40.0002C13.3334 41.7683 12.631 43.464 11.3808 44.7142C10.1306 45.9645 8.43486 46.6668 6.66675 46.6668V60.0002C6.66675 63.6668 9.66675 66.6668 13.3334 66.6668H66.6668C70.3334 66.6668 73.3334 63.6668 73.3334 60.0002V46.6668C69.6668 46.6668 66.6668 43.6668 66.6668 40.0002C66.6668 36.3335 69.6668 33.3335 73.3334 33.3335ZM66.6668 28.4668C62.7001 30.7668 60.0001 35.1002 60.0001 40.0002C60.0001 44.9002 62.7001 49.2335 66.6668 51.5335V60.0002H13.3334V51.5335C17.3001 49.2335 20.0001 44.9002 20.0001 40.0002C20.0001 35.0002 17.3334 30.7668 13.3334 28.4668V20.0002H66.6668V28.4668ZM36.6667 50.0002H43.3334V56.6668H36.6667M36.6667 36.6668H43.3334V43.3335H36.6667M36.6667 23.3335H43.3334V30.0002H36.6667V23.3335Z" fill="#425424"/>
</svg>
