<svg width="25" height="24" viewBox="0 0 25 24" fill="none" xmlns="http://www.w3.org/2000/svg">
<path d="M18.5 12.998H6.5C6.23478 12.998 5.98043 12.8926 5.79289 12.7051C5.60536 12.5176 5.5 12.2632 5.5 11.998C5.5 11.7328 5.60536 11.4784 5.79289 11.2909C5.98043 11.1034 6.23478 10.998 6.5 10.998H18.5C18.7652 10.998 19.0196 11.1034 19.2071 11.2909C19.3946 11.4784 19.5 11.7328 19.5 11.998C19.5 12.2632 19.3946 12.5176 19.2071 12.7051C19.0196 12.8926 18.7652 12.998 18.5 12.998Z" fill="black"/>
<path d="M11.5 18L11.5 6C11.5 5.73478 11.6054 5.48043 11.7929 5.29289C11.9804 5.10536 12.2348 5 12.5 5C12.7652 5 13.0196 5.10536 13.2071 5.29289C13.3946 5.48043 13.5 5.73478 13.5 6L13.5 18C13.5 18.2652 13.3946 18.5196 13.2071 18.7071C13.0196 18.8946 12.7652 19 12.5 19C12.2348 19 11.9804 18.8946 11.7929 18.7071C11.6054 18.5196 11.5 18.2652 11.5 18Z" fill="black"/>
</svg>
