<svg width="38" height="26" viewBox="0 0 38 26" fill="none" xmlns="http://www.w3.org/2000/svg">
<rect x="0.5" y="0.5" width="36.7445" height="25" rx="3.5" fill="white" stroke="#B2BCCA"/>
<path fill-rule="evenodd" clip-rule="evenodd" d="M11.9347 17.1797H9.64808L7.93342 10.6083C7.85204 10.306 7.67923 10.0388 7.42504 9.91286C6.79069 9.59634 6.09167 9.34444 5.3291 9.21739V8.96439H9.01261C9.52099 8.96439 9.90227 9.34444 9.96582 9.78581L10.8555 14.526L13.1409 8.96439H15.364L11.9347 17.1797ZM16.635 17.1797H14.4755L16.2537 8.96439H18.4132L16.635 17.1797ZM21.2074 11.2403C21.271 10.7978 21.6523 10.5449 22.0971 10.5449C22.7961 10.4813 23.5576 10.6084 24.193 10.9238L24.5743 9.15501C23.9389 8.90201 23.2398 8.77496 22.6055 8.77496C20.5095 8.77496 18.9844 9.9129 18.9844 11.4922C18.9844 12.6937 20.0647 13.3245 20.8273 13.7046C21.6523 14.0835 21.97 14.3365 21.9065 14.7155C21.9065 15.2839 21.271 15.5369 20.6366 15.5369C19.8741 15.5369 19.1115 15.3474 18.4136 15.0309L18.0323 16.8008C18.7949 17.1162 19.6199 17.2433 20.3824 17.2433C22.7326 17.3057 24.193 16.1688 24.193 14.4625C24.193 12.3136 21.2074 12.1877 21.2074 11.2403ZM31.7506 17.1797L30.0359 8.96442H28.1942C27.8129 8.96442 27.4316 9.21742 27.3045 9.59637L24.1294 17.1797H26.3524L26.7961 15.9794H29.5275L29.7817 17.1797H31.7506ZM28.5116 11.1767L29.146 14.2729H27.3678L28.5116 11.1767Z" fill="#28356A"/>
</svg>
