<svg width="24" height="24" viewBox="0 0 24 24" fill="none" xmlns="http://www.w3.org/2000/svg">
<path d="M15.8313 12.6049C17.3081 13.303 18.5673 14.3894 19.4741 15.7481C20.381 17.1067 20.9012 18.6863 20.9793 20.3179C20.9896 20.4674 20.97 20.6174 20.9215 20.7592C20.873 20.901 20.7967 21.0316 20.6971 21.1435C20.5974 21.2554 20.4764 21.3462 20.3412 21.4107C20.2059 21.4752 20.0592 21.512 19.9095 21.519C19.7599 21.526 19.6103 21.503 19.4696 21.4514C19.329 21.3998 19.2 21.3207 19.0904 21.2186C18.9807 21.1165 18.8926 20.9935 18.8311 20.8569C18.7696 20.7202 18.736 20.5727 18.7323 20.4229C18.6506 18.6897 17.9045 17.0546 16.649 15.8569C15.3935 14.6592 13.725 13.991 11.9898 13.991C10.2547 13.991 8.5862 14.6592 7.3307 15.8569C6.07519 17.0546 5.32911 18.6897 5.24734 20.4229C5.22714 20.7163 5.09286 20.9901 4.87327 21.1857C4.65368 21.3813 4.36624 21.4831 4.07249 21.4694C3.77874 21.4557 3.50204 21.3275 3.30165 21.1122C3.10126 20.897 2.9931 20.6119 3.00034 20.3179C3.07813 18.6864 3.59814 17.1068 4.50469 15.7482C5.41125 14.3896 6.67022 13.303 8.14684 12.6049C7.20036 11.8155 6.52004 10.7536 6.19842 9.56378C5.8768 8.37397 5.9295 7.11397 6.34934 5.95517C6.76918 4.79637 7.53579 3.79503 8.54489 3.08734C9.55398 2.37966 10.7566 2 11.9891 2C13.2216 2 14.4242 2.37966 15.4333 3.08734C16.4424 3.79503 17.209 4.79637 17.6288 5.95517C18.0487 7.11397 18.1014 8.37397 17.7798 9.56378C17.4581 10.7536 16.7778 11.8155 15.8313 12.6049ZM15.7398 7.99542C15.7398 7.00086 15.3448 6.04703 14.6415 5.34377C13.9382 4.64051 12.9844 4.24542 11.9898 4.24542C10.9953 4.24542 10.0415 4.64051 9.33819 5.34377C8.63493 6.04703 8.23984 7.00086 8.23984 7.99542C8.23984 8.98998 8.63493 9.94381 9.33819 10.6471C10.0415 11.3503 10.9953 11.7454 11.9898 11.7454C12.9844 11.7454 13.9382 11.3503 14.6415 10.6471C15.3448 9.94381 15.7398 8.98998 15.7398 7.99542Z" fill="black"/>
</svg>
